/vscmnt/brussel_pixiu_data/_data_brussel/112/vsc11236/PredSimResults/SUBJ09opt3D/trackIG/worker_09.mot
version=1
nRows=7
nColumns=50
inDegrees=yes
endheader
                time	         pelvis_tilt	         pelvis_list	     pelvis_rotation	           pelvis_tx	           pelvis_ty	           pelvis_tz	       hip_flexion_r	     hip_adduction_r	      hip_rotation_r	        knee_angle_r	       ankle_angle_r	         mtp_angle_r	       hip_flexion_l	     hip_adduction_l	      hip_rotation_l	        knee_angle_l	       ankle_angle_l	         mtp_angle_l	    lumbar_extension	      lumbar_bending	     lumbar_rotation	 ercspn_r/activation	 intobl_r/activation	 extobl_r/activation	    abd_r/activation	    add_r/activation	hamstrings_r/activation	bifemsh_r/activation	glut_max_r/activation	iliopsoas_r/activation	rect_fem_r/activation	  vasti_r/activation	gastroc_r/activation	 soleus_r/activation	tib_ant_r/activation	 ercspn_l/activation	 intobl_l/activation	 extobl_l/activation	    abd_l/activation	    add_l/activation	hamstrings_l/activation	bifemsh_l/activation	glut_max_l/activation	iliopsoas_l/activation	rect_fem_l/activation	  vasti_l/activation	gastroc_l/activation	 soleus_l/activation	tib_ant_l/activation	
          1.76812468	         -5.00423990	          1.66119771	         -9.14556099	          2.47537455	          0.98333839	          0.00365648	        -15.10482844	         -3.15259347	         -2.59743599	         -8.99200059	          2.73953644	         38.55337377	         30.95850496	         -1.45027526	         -8.61283997	         -6.03128684	          5.35967419	          0.23804910	        -13.20647232	          0.05816268	          6.62694805	          0.01000013	          0.01000001	          0.01000004	          0.02601475	          0.01000004	          0.01493505	          0.22958734	          0.01236011	          0.01000629	          0.01000006	          0.01000003	          0.34252371	          0.21063509	          0.01431511	          0.04704104	          0.15593198	          0.02416809	          0.01676395	          0.20829869	          0.08907848	          0.17571624	          0.03822310	          0.14820356	          0.01000002	          0.01000003	          0.01940231	          0.01000000	          0.35087524	
          1.77991218	         -5.00948865	          1.80284091	         -9.16786412	          2.49648060	          0.98091486	          0.00310213	        -15.76349272	         -3.52393762	         -3.04215592	         -9.82647892	          1.41363673	         40.29120241	         31.00183668	         -1.24161783	         -8.81692886	         -8.01778936	          4.81839483	          0.23133395	        -12.69483253	         -0.36424937	          6.84485576	          0.05975732	          0.01000011	          0.01196431	          0.02174313	          0.04564126	          0.02845416	          0.19188920	          0.01033062	          0.01000037	          0.01000005	          0.01000008	          0.30452173	          0.18182139	          0.01196457	          0.03931692	          0.13032797	          0.02019970	          0.01919063	          0.20001768	          0.07491530	          0.14686367	          0.18908449	          0.12386856	          0.01000005	          0.01000008	          0.01712736	          0.01431643	          0.36749215	
          1.79169968	         -4.99463939	          1.95887690	         -9.15297704	          2.51790059	          0.97865628	          0.00249183	        -16.22587542	         -3.92067770	         -3.52245110	        -11.07232090	          0.03790993	         41.87637883	         30.93571638	         -1.03849920	         -8.97255206	        -10.08284064	          4.38715904	          0.21135718	        -12.16298542	         -0.80354355	          7.02866321	          0.04994573	          0.01000001	          0.01000002	          0.01817291	          0.03814701	          0.02378201	          0.16038107	          0.01000001	          0.13092140	          0.01000009	          0.01000006	          0.25451931	          0.15196635	          0.01000000	          0.03286126	          0.10892814	          0.01688291	          0.13794977	          0.23273131	          0.06436735	          0.12274869	          0.20731274	          0.10352936	          0.01000002	          0.01000001	          0.01431506	          0.01196568	          0.42872325	
          1.80348718	         -4.96438641	          2.10218939	         -9.10027512	          2.53920540	          0.97684139	          0.00178068	        -16.33691917	         -4.32447487	         -4.01239851	        -12.95394723	         -1.36283074	         43.16249775	         30.87575264	         -0.83449746	         -9.09395645	        -12.13307972	          3.76401297	          0.18283264	        -11.66514734	         -1.22760508	          7.17938419	          0.08816028	          0.01000003	          0.01000003	          0.01518892	          0.06636059	          0.01987704	          0.13404656	          0.01000002	          0.18920064	          0.01000007	          0.01000004	          0.21272728	          0.12701350	          0.01000000	          0.04371413	          0.09104216	          0.01411075	          0.18925987	          0.30559214	          0.05379829	          0.10259339	          0.24781939	          0.08652985	          0.01000005	          0.03645162	          0.01196454	          0.01000093	          0.46234048	
          1.81527467	         -4.91987466	          2.23643909	         -9.01718770	          2.56013747	          0.97562744	          0.00097437	        -15.99537844	         -4.75030344	         -4.51700289	        -15.61804298	         -2.72407937	         43.87382779	         30.89500602	         -0.62999261	         -9.16024283	        -14.35280488	          3.39837143	          0.13786232	        -11.22794811	         -1.64245905	          7.29764013	          0.12136395	          0.01000001	          0.01000001	          0.01269491	          0.14219071	          0.01661326	          0.11203617	          0.01000000	          0.16799624	          0.01000003	          0.01000000	          0.17779749	          0.10615790	          0.01000000	          0.04820904	          0.07609305	          0.01179377	          0.22191291	          0.31441540	          0.04954792	          0.08574758	          0.26660135	          0.07232166	          0.01000005	          0.17255084	          0.01000012	          0.01000007	          0.47754582	
          1.82706217	         -4.86566106	          2.35059943	         -8.90084252	          2.58056043	          0.97519699	          0.00010093	        -15.14916842	         -5.19705227	         -5.06425006	        -19.12791847	         -4.03111511	         43.67058466	         30.87594219	         -0.42056763	         -9.18221834	        -16.52795373	          3.37836087	          0.09284646	        -10.86314093	         -2.03706469	          7.37765233	          0.12266961	          0.01000001	          0.01000002	          0.01061040	          0.19043760	          0.01388540	          0.09363990	          0.01000000	          0.14041133	          0.01000002	          0.01000000	          0.14860317	          0.08872679	          0.01000000	          0.04029318	          0.06359858	          0.01000001	          0.23642719	          0.31398953	          0.04556116	          0.07166785	          0.26862736	          0.06044646	          0.01000005	          0.24935253	          0.01000012	          0.01000007	          0.46474174	
          1.83884967	         -4.80611726	          2.43524491	         -8.74738473	          2.60039775	          0.97563475	         -0.00080466	        -13.80476354	         -5.66769459	         -5.65359606	        -23.38494249	         -5.53010339	         42.60345534	         30.72141792	         -0.20373483	         -9.16799141	        -18.47679040	          3.71458693	          0.06394725	        -10.57572575	         -2.40338572	          7.41238178	          0.11814180	          0.01000000	          0.01000002	          0.00999999	          0.23390438	          0.01229919	          0.07826431	          0.01000000	          0.11735583	          0.01000001	          0.00999999	          0.12420255	          0.07415786	          0.01000034	          0.03367707	          0.05315571	          0.01000002	          0.24707742	          0.31527193	          0.05409606	          0.05990001	          0.24296339	          0.05052116	          0.01000004	          0.29038846	          0.01000005	          0.01000002	          0.41964438	
